<svg width="24" height="24" viewBox="0 0 24 24" fill="none" xmlns="http://www.w3.org/2000/svg">
<rect width="24" height="24" rx="12" fill="#FCFBFD"/>
<mask id="mask0_2_521" style="mask-type:alpha" maskUnits="userSpaceOnUse" x="2" y="2" width="20" height="20">
<rect x="2" y="2" width="20" height="20" fill="#D9D9D9"/>
</mask>
<g mask="url(#mask0_2_521)">
<path d="M10.8337 13.5L9.04199 11.7083C8.88921 11.5555 8.69477 11.4791 8.45866 11.4791C8.22255 11.4791 8.0281 11.5555 7.87533 11.7083C7.72255 11.8611 7.64616 12.0555 7.64616 12.2916C7.64616 12.5277 7.72255 12.7222 7.87533 12.875L10.2503 15.25C10.417 15.4166 10.6114 15.5 10.8337 15.5C11.0559 15.5 11.2503 15.4166 11.417 15.25L16.1253 10.5416C16.2781 10.3888 16.3545 10.1944 16.3545 9.95829C16.3545 9.72218 16.2781 9.52774 16.1253 9.37496C15.9725 9.22218 15.7781 9.14579 15.542 9.14579C15.3059 9.14579 15.1114 9.22218 14.9587 9.37496L10.8337 13.5ZM12.0003 20.3333C10.8475 20.3333 9.76421 20.1145 8.75033 19.677C7.73644 19.2395 6.85449 18.6458 6.10449 17.8958C5.35449 17.1458 4.76074 16.2638 4.32324 15.25C3.88574 14.2361 3.66699 13.1527 3.66699 12C3.66699 10.8472 3.88574 9.76385 4.32324 8.74996C4.76074 7.73607 5.35449 6.85413 6.10449 6.10413C6.85449 5.35413 7.73644 4.76038 8.75033 4.32288C9.76421 3.88538 10.8475 3.66663 12.0003 3.66663C13.1531 3.66663 14.2364 3.88538 15.2503 4.32288C16.2642 4.76038 17.1462 5.35413 17.8962 6.10413C18.6462 6.85413 19.2399 7.73607 19.6774 8.74996C20.1149 9.76385 20.3337 10.8472 20.3337 12C20.3337 13.1527 20.1149 14.2361 19.6774 15.25C19.2399 16.2638 18.6462 17.1458 17.8962 17.8958C17.1462 18.6458 16.2642 19.2395 15.2503 19.677C14.2364 20.1145 13.1531 20.3333 12.0003 20.3333Z" fill="#3CC28A"/>
</g>
</svg>
