<svg width="20" height="20" viewBox="0 0 20 20" fill="none" xmlns="http://www.w3.org/2000/svg">
<mask id="mask0_2_807" style="mask-type:alpha" maskUnits="userSpaceOnUse" x="0" y="0" width="20" height="20">
<rect width="20" height="20" fill="#D9D9D9"/>
</mask>
<g mask="url(#mask0_2_807)">
<path d="M16.2855 17.1475L11.0515 11.9133C10.6348 12.2574 10.1557 12.5266 9.614 12.7211C9.07233 12.9155 8.51198 13.0127 7.93296 13.0127C6.50865 13.0127 5.30323 12.5196 4.31671 11.5333C3.33018 10.5471 2.83691 9.34196 2.83691 7.91793C2.83691 6.49404 3.33004 5.28848 4.31629 4.30126C5.30254 3.31418 6.50768 2.82064 7.93171 2.82064C9.35559 2.82064 10.5612 3.3139 11.5484 4.30043C12.5355 5.28696 13.029 6.49237 13.029 7.91668C13.029 8.51182 12.9291 9.08022 12.7294 9.62189C12.5296 10.1636 12.263 10.6347 11.9296 11.0352L17.1636 16.2692L16.2855 17.1475ZM7.93296 11.7629C9.00671 11.7629 9.91615 11.3903 10.6613 10.645C11.4066 9.89987 11.7792 8.99043 11.7792 7.91668C11.7792 6.84293 11.4066 5.93348 10.6613 5.18834C9.91615 4.44307 9.00671 4.07043 7.93296 4.07043C6.85921 4.07043 5.94976 4.44307 5.20462 5.18834C4.45934 5.93348 4.08671 6.84293 4.08671 7.91668C4.08671 8.99043 4.45934 9.89987 5.20462 10.645C5.94976 11.3903 6.85921 11.7629 7.93296 11.7629ZM7.30796 10.1602V8.54168H5.68941V7.29168H7.30796V5.67314H8.55796V7.29168H10.1765V8.54168H8.55796V10.1602H7.30796Z" fill="#5B6170"/>
</g>
</svg>
